<?xml version="1.0" encoding="utf-8"?>
<!-- Generator: Adobe Illustrator 21.0.0, SVG Export Plug-In . SVG Version: 6.00 Build 0)  -->
<svg version="1.1" id="Layer_1" xmlns="http://www.w3.org/2000/svg" xmlns:xlink="http://www.w3.org/1999/xlink" x="0px" y="0px"
	 viewBox="0 0 157 36" style="enable-background:new 0 0 157 36;" xml:space="preserve">
<style type="text/css">
	.st0{fill:#333333;}
	.st1{font-family:'MyriadPro-Bold';}
	.st2{font-size:31.3878px;}
</style>
<g>
	<path class="st0" d="M18,1.3C8.7,1.3,1.2,8.9,1.2,18.2S8.7,35,18,35s16.8-7.5,16.8-16.8S27.3,1.3,18,1.3z M7.9,13.1
		c-1.2,0-2.1-0.9-2.1-2.1c0-1.2,0.9-2.1,2.1-2.1S10,9.9,10,11C10,12.2,9,13.1,7.9,13.1z M18,26.7c-4.7,0-8.5-3.8-8.5-8.5
		c0-4.7,3.8-8.5,8.5-8.5s8.5,3.8,8.5,8.5C26.5,22.9,22.7,26.7,18,26.7z"/>
</g>
<text transform="matrix(1 0 0 1 36 27.3788)" class="st0 st1 st2">SeeSnap</text>
</svg>
